<svg viewBox="0 0 220 42" xmlns="http://www.w3.org/2000/svg" data-logo="logo">
        <g transform="translate(0, 1) rotate(0)" id="logogram"><path fill="#297AFF" d="M33.724 36.5809C37.7426 32.5622 40.0003 27.1118 40.0003 21.4286C40.0003 15.7454 37.7426 10.2949 33.724 6.27629C29.7054 2.25765 24.2549 1.02188e-06 18.5717 0C12.8885 -1.02188e-06 7.43807 2.25764 3.41943 6.27628L10.4905 13.3473C11.6063 14.4631 13.4081 14.4074 14.8276 13.7181C15.9836 13.1568 17.2622 12.8571 18.5717 12.8571C20.845 12.8571 23.0252 13.7602 24.6326 15.3677C26.2401 16.9751 27.1431 19.1553 27.1431 21.4286C27.1431 22.7381 26.8435 24.0167 26.2822 25.1727C25.5929 26.5922 25.5372 28.394 26.6529 29.5098L33.724 36.5809Z"></path><path fill="#34C2FF" d="M30 40H19.5098C17.9943 40 16.5408 39.398 15.4692 38.3263L1.67368 24.5308C0.60204 23.4592 0 22.0057 0 20.4902V10L30 40Z"></path><path fill="#34C2FF" d="M10.7143 39.9999H4.28571C1.91878 39.9999 0 38.0812 0 35.7142V29.2856L10.7143 39.9999Z"></path></g>
        <g transform="translate(46, 8)" id="logotype"><path d="M19.48 26.25L19.48 26.25Q16.78 26.25 14.52 25.32Q12.27 24.39 10.62 22.69Q8.97 20.99 8.08 18.72Q7.19 16.45 7.19 13.71L7.19 13.71Q7.19 10.91 8.10 8.62Q9.01 6.33 10.67 4.67Q12.34 3.00 14.59 2.09Q16.85 1.18 19.48 1.18L19.48 1.18Q22.28 1.18 24.55 2.16Q26.83 3.14 28.44 4.95Q30.05 6.75 30.82 9.23L30.82 9.23L25.08 11.02Q24.34 8.64 22.89 7.61Q21.44 6.57 19.44 6.57L19.44 6.57Q17.59 6.57 16.19 7.45Q14.79 8.32 14.00 9.93Q13.21 11.54 13.21 13.71L13.21 13.71Q13.21 15.88 13.98 17.49Q14.75 19.11 16.15 20.00Q17.55 20.89 19.41 20.89L19.41 20.89Q21.54 20.89 23.01 19.77Q24.48 18.65 25.25 16.41L25.25 16.41L31.06 17.77Q30.36 20.40 28.70 22.31Q27.04 24.21 24.67 25.23Q22.31 26.25 19.48 26.25ZM42.16 26.25L42.16 26.25Q39.29 26.25 37.01 25.04Q34.74 23.83 33.42 21.55Q32.11 19.28 32.11 16.23L32.11 16.23Q32.11 13.15 33.44 10.91Q34.77 8.67 37.06 7.45Q39.36 6.22 42.23 6.22L42.23 6.22Q45.13 6.22 47.42 7.43Q49.72 8.64 51.05 10.90Q52.38 13.15 52.38 16.23L52.38 16.23Q52.38 19.28 51.01 21.55Q49.65 23.83 47.34 25.04Q45.03 26.25 42.16 26.25ZM42.16 21.13L42.16 21.13Q43.24 21.13 44.20 20.59Q45.17 20.05 45.76 18.96Q46.36 17.88 46.36 16.23L46.36 16.23Q46.36 14.55 45.76 13.49Q45.17 12.42 44.24 11.89Q43.31 11.37 42.23 11.37L42.23 11.37Q41.14 11.37 40.21 11.89Q39.29 12.42 38.71 13.49Q38.13 14.55 38.13 16.23L38.13 16.23Q38.13 17.88 38.67 18.96Q39.22 20.05 40.14 20.59Q41.07 21.13 42.16 21.13ZM61.93 26.25L61.93 26.25Q59.38 26.25 57.47 24.91Q55.56 23.59 54.53 21.33Q53.50 19.07 53.50 16.23L53.50 16.23Q53.50 13.43 54.53 11.16Q55.56 8.88 57.47 7.55Q59.38 6.22 61.93 6.22L61.93 6.22Q64.17 6.22 65.83 7.43Q67.50 8.64 68.16 10.81L68.16 10.81L68.16 0.10L74.08 0.10L74.08 26L71.17 26Q69.77 26 68.97 25.21Q68.16 24.43 68.16 23.02L68.16 23.02L68.16 21.70Q67.50 23.83 65.83 25.04Q64.17 26.25 61.93 26.25ZM63.86 21.06L63.86 21.06Q65.01 21.06 65.99 20.50Q66.97 19.95 67.57 18.86Q68.16 17.77 68.16 16.23L68.16 16.23Q68.16 14.73 67.57 13.64Q66.97 12.56 65.99 11.96Q65.01 11.37 63.86 11.37L63.86 11.37Q62.67 11.37 61.69 11.96Q60.71 12.56 60.13 13.64Q59.55 14.73 59.55 16.23L59.55 16.23Q59.55 17.77 60.13 18.86Q60.71 19.95 61.70 20.50Q62.70 21.06 63.86 21.06ZM86.75 26.25L86.75 26.25Q84.61 26.25 82.67 25.58Q80.73 24.91 79.24 23.64Q77.75 22.36 76.89 20.54Q76.04 18.72 76.04 16.38L76.04 16.38Q76.04 14.13 76.86 12.28Q77.68 10.42 79.10 9.06Q80.52 7.69 82.39 6.96Q84.26 6.22 86.36 6.22L86.36 6.22Q88.08 6.22 89.63 6.68Q91.19 7.13 92.43 8.01Q93.68 8.88 94.39 10.07Q95.11 11.26 95.11 12.73L95.11 12.73Q95.11 14.59 94.06 15.81Q93.01 17.04 91.31 17.74Q89.62 18.44 87.60 18.74Q85.59 19.04 83.63 19L83.63 19Q83.39 19 83.05 18.98Q82.72 18.96 82.44 18.95Q82.16 18.93 82.02 18.93L82.02 18.93Q82.23 19.73 82.91 20.38Q83.60 21.03 84.65 21.41Q85.70 21.80 86.82 21.80L86.82 21.80Q87.94 21.80 88.97 21.41Q90.00 21.03 90.84 20.43Q91.68 19.84 92.28 19.11L92.28 19.11L96.06 22.08Q95.01 23.48 93.50 24.41Q92.00 25.34 90.26 25.79Q88.53 26.25 86.75 26.25ZM83.67 15.11L83.67 15.11Q84.61 15.11 85.63 15.01Q86.64 14.90 87.50 14.64Q88.36 14.38 88.90 13.91Q89.44 13.43 89.44 12.70L89.44 12.70Q89.44 12.10 89.02 11.65Q88.60 11.19 87.90 10.95Q87.20 10.70 86.40 10.70L86.40 10.70Q85.00 10.70 83.95 11.37Q82.90 12.03 82.34 13.03Q81.78 14.03 81.71 15.04L81.71 15.04Q82.02 15.08 82.56 15.10Q83.11 15.11 83.67 15.11ZM113.63 1.43L119.54 1.43L119.54 26L113.63 26L103.55 10.74L103.55 26L97.63 26L97.63 1.43L103.55 1.43L113.63 16.80L113.63 1.43ZM132.18 26.25L132.18 26.25Q130.04 26.25 128.10 25.58Q126.16 24.91 124.67 23.64Q123.18 22.36 122.32 20.54Q121.47 18.72 121.47 16.38L121.47 16.38Q121.47 14.13 122.29 12.28Q123.11 10.42 124.53 9.06Q125.95 7.69 127.82 6.96Q129.69 6.22 131.79 6.22L131.79 6.22Q133.51 6.22 135.06 6.68Q136.62 7.13 137.86 8.01Q139.11 8.88 139.82 10.07Q140.54 11.26 140.54 12.73L140.54 12.73Q140.54 14.59 139.49 15.81Q138.44 17.04 136.74 17.74Q135.05 18.44 133.03 18.74Q131.02 19.04 129.06 19L129.06 19Q128.82 19 128.48 18.98Q128.15 18.96 127.87 18.95Q127.59 18.93 127.45 18.93L127.45 18.93Q127.66 19.73 128.34 20.38Q129.03 21.03 130.08 21.41Q131.13 21.80 132.25 21.80L132.25 21.80Q133.37 21.80 134.40 21.41Q135.43 21.03 136.27 20.43Q137.11 19.84 137.71 19.11L137.71 19.11L141.49 22.08Q140.44 23.48 138.93 24.41Q137.43 25.34 135.69 25.79Q133.96 26.25 132.18 26.25ZM129.10 15.11L129.10 15.11Q130.04 15.11 131.06 15.01Q132.07 14.90 132.93 14.64Q133.79 14.38 134.33 13.91Q134.87 13.43 134.87 12.70L134.87 12.70Q134.87 12.10 134.45 11.65Q134.03 11.19 133.33 10.95Q132.63 10.70 131.83 10.70L131.83 10.70Q130.43 10.70 129.38 11.37Q128.33 12.03 127.77 13.03Q127.21 14.03 127.14 15.04L127.14 15.04Q127.45 15.08 127.99 15.10Q128.54 15.11 129.10 15.11ZM150.62 26.25L150.62 26.25Q148.49 26.25 146.72 25.58Q144.95 24.91 143.76 23.71Q142.57 22.50 142.05 20.93L142.05 20.93L147.51 19.70Q147.75 20.71 148.57 21.29Q149.40 21.87 150.59 21.87L150.59 21.87Q151.74 21.87 152.37 21.40Q153.00 20.93 153.00 20.26L153.00 20.26Q153.00 19.45 152.23 19.05Q151.46 18.65 150.22 18.37Q148.98 18.09 147.61 17.77Q146.25 17.46 145.02 16.85Q143.80 16.23 143.03 15.15Q142.26 14.06 142.26 12.31L142.26 12.31Q142.26 10.63 143.18 9.27Q144.11 7.90 145.88 7.06Q147.65 6.22 150.20 6.22L150.20 6.22Q152.34 6.22 153.96 6.89Q155.59 7.55 156.66 8.73Q157.73 9.90 158.18 11.51L158.18 11.51L152.97 12.87Q152.76 11.82 152.02 11.23Q151.29 10.63 150.06 10.63L150.06 10.63Q148.94 10.63 148.38 11.05Q147.82 11.47 147.82 12.17L147.82 12.17Q147.82 12.94 148.59 13.38Q149.36 13.82 150.59 14.10Q151.81 14.38 153.18 14.75Q154.54 15.11 155.77 15.74Q156.99 16.38 157.76 17.49Q158.53 18.61 158.53 20.40L158.53 20.40Q158.53 22.08 157.57 23.41Q156.61 24.74 154.82 25.49Q153.04 26.25 150.62 26.25ZM169.00 26.25L169.00 26.25Q165.78 26.25 164.06 24.48Q162.35 22.71 162.35 19.35L162.35 19.35L162.35 11.26L159.23 11.26L159.23 6.47L172.15 6.47L172.15 11.26L168.26 11.26L168.26 19.42Q168.26 20.26 168.80 20.73Q169.35 21.20 170.12 21.20L170.12 21.20Q170.47 21.20 170.76 21.12Q171.06 21.03 171.34 20.86L171.34 20.86L172.81 25.20Q171.97 25.65 171.04 25.95Q170.12 26.25 169.00 26.25ZM166.06 6.47L160.77 8.04L160.77 6.47Q161.54 6.47 162.03 5.98Q162.52 5.49 162.52 4.72L162.52 4.72L162.52 1.71L168.26 1.71L168.26 3.81Q168.26 4.30 168.02 4.88Q167.77 5.45 167.26 5.89Q166.76 6.33 166.06 6.47L166.06 6.47Z" fill="#ffffff"></path></g>
        
      </svg>